<svg width="117" height="51" viewBox="0 0 117 51" fill="none" xmlns="http://www.w3.org/2000/svg">
<path d="M69.49 26.1C69.49 25.1387 69.7047 24.28 70.134 23.524C70.5727 22.7587 71.1653 22.166 71.912 21.746C72.668 21.3167 73.5127 21.102 74.446 21.102C75.538 21.102 76.4947 21.382 77.316 21.942C78.1373 22.502 78.7113 23.2767 79.038 24.266H76.784C76.56 23.7993 76.2427 23.4493 75.832 23.216C75.4307 22.9827 74.964 22.866 74.432 22.866C73.8627 22.866 73.354 23.0013 72.906 23.272C72.4673 23.5333 72.122 23.9067 71.87 24.392C71.6273 24.8773 71.506 25.4467 71.506 26.1C71.506 26.744 71.6273 27.3133 71.87 27.808C72.122 28.2933 72.4673 28.6713 72.906 28.942C73.354 29.2033 73.8627 29.334 74.432 29.334C74.964 29.334 75.4307 29.2173 75.832 28.984C76.2427 28.7413 76.56 28.3867 76.784 27.92H79.038C78.7113 28.9187 78.1373 29.698 77.316 30.258C76.504 30.8087 75.5473 31.084 74.446 31.084C73.5127 31.084 72.668 30.874 71.912 30.454C71.1653 30.0247 70.5727 29.432 70.134 28.676C69.7047 27.92 69.49 27.0613 69.49 26.1ZM80.2081 27.094C80.2081 26.31 80.3621 25.6147 80.6701 25.008C80.9874 24.4013 81.4121 23.9347 81.9441 23.608C82.4854 23.2813 83.0874 23.118 83.7501 23.118C84.3288 23.118 84.8328 23.2347 85.2621 23.468C85.7008 23.7013 86.0508 23.9953 86.3121 24.35V23.244H88.2861V31H86.3121V29.866C86.0601 30.23 85.7101 30.5333 85.2621 30.776C84.8234 31.0093 84.3148 31.126 83.7361 31.126C83.0828 31.126 82.4854 30.958 81.9441 30.622C81.4121 30.286 80.9874 29.8147 80.6701 29.208C80.3621 28.592 80.2081 27.8873 80.2081 27.094ZM86.3121 27.122C86.3121 26.646 86.2188 26.24 86.0321 25.904C85.8454 25.5587 85.5934 25.2973 85.2761 25.12C84.9588 24.9333 84.6181 24.84 84.2541 24.84C83.8901 24.84 83.5541 24.9287 83.2461 25.106C82.9381 25.2833 82.6861 25.5447 82.4901 25.89C82.3034 26.226 82.2101 26.6273 82.2101 27.094C82.2101 27.5607 82.3034 27.9713 82.4901 28.326C82.6861 28.6713 82.9381 28.9373 83.2461 29.124C83.5634 29.3107 83.8994 29.404 84.2541 29.404C84.6181 29.404 84.9588 29.3153 85.2761 29.138C85.5934 28.9513 85.8454 28.69 86.0321 28.354C86.2188 28.0087 86.3121 27.598 86.3121 27.122ZM92.1604 24.364C92.4124 24.0093 92.7577 23.7153 93.1964 23.482C93.6444 23.2393 94.153 23.118 94.7224 23.118C95.385 23.118 95.9824 23.2813 96.5144 23.608C97.0557 23.9347 97.4804 24.4013 97.7884 25.008C98.1057 25.6053 98.2644 26.3007 98.2644 27.094C98.2644 27.8873 98.1057 28.592 97.7884 29.208C97.4804 29.8147 97.0557 30.286 96.5144 30.622C95.9824 30.958 95.385 31.126 94.7224 31.126C94.153 31.126 93.649 31.0093 93.2104 30.776C92.781 30.5427 92.431 30.2487 92.1604 29.894V34.696H90.2004V23.244H92.1604V24.364ZM96.2624 27.094C96.2624 26.6273 96.1644 26.226 95.9684 25.89C95.7817 25.5447 95.5297 25.2833 95.2124 25.106C94.9044 24.9287 94.5684 24.84 94.2044 24.84C93.8497 24.84 93.5137 24.9333 93.1964 25.12C92.8884 25.2973 92.6364 25.5587 92.4404 25.904C92.2537 26.2493 92.1604 26.6553 92.1604 27.122C92.1604 27.5887 92.2537 27.9947 92.4404 28.34C92.6364 28.6853 92.8884 28.9513 93.1964 29.138C93.5137 29.3153 93.8497 29.404 94.2044 29.404C94.5684 29.404 94.9044 29.3107 95.2124 29.124C95.5297 28.9373 95.7817 28.6713 95.9684 28.326C96.1644 27.9807 96.2624 27.57 96.2624 27.094ZM100.683 22.32C100.337 22.32 100.048 22.2127 99.8147 21.998C99.5907 21.774 99.4787 21.4987 99.4787 21.172C99.4787 20.8453 99.5907 20.5747 99.8147 20.36C100.048 20.136 100.337 20.024 100.683 20.024C101.028 20.024 101.313 20.136 101.537 20.36C101.77 20.5747 101.887 20.8453 101.887 21.172C101.887 21.4987 101.77 21.774 101.537 21.998C101.313 22.2127 101.028 22.32 100.683 22.32ZM101.649 23.244V31H99.6887V23.244H101.649Z" fill="white"/>
<path d="M105.867 24.854V28.606C105.867 28.8673 105.928 29.0587 106.049 29.18C106.18 29.292 106.394 29.348 106.693 29.348H107.603V31H106.371C104.719 31 103.893 30.1973 103.893 28.592V24.854H102.969V23.244H103.893V21.326H105.867V23.244H107.603V24.854H105.867ZM112.457 31.126C111.71 31.126 111.038 30.9627 110.441 30.636C109.844 30.3 109.372 29.8287 109.027 29.222C108.691 28.6153 108.523 27.9153 108.523 27.122C108.523 26.3287 108.696 25.6287 109.041 25.022C109.396 24.4153 109.876 23.9487 110.483 23.622C111.09 23.286 111.766 23.118 112.513 23.118C113.26 23.118 113.936 23.286 114.543 23.622C115.15 23.9487 115.626 24.4153 115.971 25.022C116.326 25.6287 116.503 26.3287 116.503 27.122C116.503 27.9153 116.321 28.6153 115.957 29.222C115.602 29.8287 115.117 30.3 114.501 30.636C113.894 30.9627 113.213 31.126 112.457 31.126ZM112.457 29.418C112.812 29.418 113.143 29.334 113.451 29.166C113.768 28.9887 114.02 28.7273 114.207 28.382C114.394 28.0367 114.487 27.6167 114.487 27.122C114.487 26.3847 114.291 25.82 113.899 25.428C113.516 25.0267 113.045 24.826 112.485 24.826C111.925 24.826 111.454 25.0267 111.071 25.428C110.698 25.82 110.511 26.3847 110.511 27.122C110.511 27.8593 110.693 28.4287 111.057 28.83C111.43 29.222 111.897 29.418 112.457 29.418Z" fill="#FF8A00"/>
<circle cx="25.5" cy="25.5" r="25.5" fill="#FF8A00"/>
<path d="M18.875 25.25C18.875 23.5333 19.2583 22 20.025 20.65C20.8083 19.2833 21.8667 18.225 23.2 17.475C24.55 16.7083 26.0583 16.325 27.725 16.325C29.675 16.325 31.3833 16.825 32.85 17.825C34.3167 18.825 35.3417 20.2083 35.925 21.975H31.9C31.5 21.1417 30.9333 20.5167 30.2 20.1C29.4833 19.6833 28.65 19.475 27.7 19.475C26.6833 19.475 25.775 19.7167 24.975 20.2C24.1917 20.6667 23.575 21.3333 23.125 22.2C22.6917 23.0667 22.475 24.0833 22.475 25.25C22.475 26.4 22.6917 27.4167 23.125 28.3C23.575 29.1667 24.1917 29.8417 24.975 30.325C25.775 30.7917 26.6833 31.025 27.7 31.025C28.65 31.025 29.4833 30.8167 30.2 30.4C30.9333 29.9667 31.5 29.3333 31.9 28.5H35.925C35.3417 30.2833 34.3167 31.675 32.85 32.675C31.4 33.6583 29.6917 34.15 27.725 34.15C26.0583 34.15 24.55 33.775 23.2 33.025C21.8667 32.2583 20.8083 31.2 20.025 29.85C19.2583 28.5 18.875 26.9667 18.875 25.25Z" fill="white"/>
</svg>
